<?xml version="1.0" standalone="no"?>
<!DOCTYPE svg PUBLIC "-//W3C//DTD SVG 20010904//EN"
 "http://www.w3.org/TR/2001/REC-SVG-20010904/DTD/svg10.dtd">
<svg version="1.0" xmlns="http://www.w3.org/2000/svg"
 width="543.000000pt" height="543.000000pt" viewBox="0 0 543.000000 543.000000"
 preserveAspectRatio="xMidYMid meet">

<g transform="translate(0.000000,543.000000) scale(0.100000,-0.100000)"
fill="#000000" stroke="none">
<path d="M2264 3544 c-32 -18 -61 -31 -65 -29 -6 4 -288 -150 -1456 -797
l-252 -139 28 -52 c55 -97 211 -390 211 -393 0 -3 43 -83 95 -179 52 -96 95
-178 95 -182 0 -4 -207 -7 -460 -5 l-460 2 0 -885 0 -885 2715 0 2715 0 0 880
0 880 -155 1 c-85 1 -164 2 -176 3 -17 1 -33 33 -98 191 -42 105 -137 337
-210 518 l-134 327 -46 -5 c-53 -6 -605 -61 -1084 -108 l-327 -33 -24 21 c-13
11 -140 144 -282 295 -142 151 -328 350 -415 441 l-157 166 -58 -33z m-67
-280 c-3 -3 -12 -4 -19 -1 -8 3 -5 6 6 6 11 1 17 -2 13 -5z m-47 -15 c-35 -24
-90 -49 -90 -41 0 15 34 40 60 45 42 7 46 7 30 -4z m64 -28 c3 -5 16 -7 29 -5
19 4 20 3 3 -4 -14 -6 -16 -11 -8 -16 7 -4 17 -4 22 -1 6 3 10 0 10 -8 0 -16
-24 -38 -59 -57 -26 -13 -23 -3 8 33 15 18 14 20 -7 37 -12 10 -22 21 -22 24
0 9 18 7 24 -3z m118 -13 c-7 -7 -12 -8 -12 -2 0 14 12 26 19 19 2 -3 -1 -11
-7 -17z m-347 -38 c-10 -11 -23 -20 -28 -20 -6 0 0 11 13 25 27 29 42 25 15
-5z m135 21 c0 -6 -4 -13 -10 -16 -5 -3 -10 1 -10 9 0 9 5 16 10 16 6 0 10 -4
10 -9z m58 -13 c19 -19 14 -38 -11 -38 -30 0 -36 6 -30 31 6 22 23 25 41 7z
m157 -19 c-2 -12 -10 -28 -17 -38 -7 -9 3 -2 21 14 27 24 32 26 22 8 -28 -54
-120 -78 -100 -27 4 12 12 25 18 29 14 8 14 -1 1 -26 -8 -15 -7 -19 4 -19 7 0
21 18 30 40 17 43 27 53 21 19z m-235 -19 c0 -13 -5 -18 -15 -14 -8 4 -15 12
-15 20 0 8 7 14 15 14 8 0 15 -9 15 -20z m-194 -15 c7 -27 -8 -80 -22 -79 -19
1 -28 53 -14 79 17 32 28 32 36 0z m98 -9 c-4 -17 1 -30 17 -45 23 -21 51 -29
129 -34 l45 -3 -40 -18 c-92 -42 -211 24 -177 99 15 32 34 33 26 1z m416 7 c0
-2 -6 -3 -13 -1 -8 2 -27 -13 -43 -32 -30 -35 -19 -33 26 4 l25 21 -23 -26
c-26 -30 -93 -64 -142 -72 -32 -6 -30 -4 20 22 30 16 70 45 89 64 18 20 40 33
47 30 8 -3 14 -7 14 -10z m-281 -43 c20 0 49 7 65 15 16 9 31 13 33 11 3 -3
-9 -12 -26 -20 -44 -23 -122 -21 -155 5 -39 31 -31 42 10 14 23 -15 51 -25 73
-25z m-309 -60 c11 -22 20 -46 20 -55 0 -14 -2 -14 -24 0 -28 19 -51 68 -42
90 8 22 23 11 46 -35z m670 26 c0 -2 -7 -7 -16 -10 -8 -3 -12 -2 -9 4 6 10 25
14 25 6z m-575 -46 c3 -6 -4 -10 -17 -10 -18 0 -20 2 -8 10 19 12 18 12 25 0z
m615 -10 c-8 -5 -22 -9 -30 -9 -10 0 -8 3 5 9 27 12 43 12 25 0z m-530 -19 c0
-10 -38 -39 -77 -60 -33 -17 -30 4 6 40 28 28 71 40 71 20z m244 -68 c49 -49
42 -106 -22 -166 -25 -24 -36 -28 -60 -22 -19 4 -49 0 -76 -9 -58 -20 -132 -7
-167 30 -28 30 -18 31 21 3 41 -31 138 -24 178 12 15 14 35 31 45 39 17 12 18
11 12 -16 l-7 -29 17 23 c13 18 16 37 13 80 -3 31 -8 65 -12 74 -11 24 27 12
58 -19z m153 31 c-3 -3 -12 -4 -19 -1 -8 3 -5 6 6 6 11 1 17 -2 13 -5z m-557
-86 c0 -6 -6 -8 -12 -6 -15 5 -58 66 -58 82 1 13 70 -63 70 -76z m300 63 l25
-20 -62 6 c-56 5 -66 3 -112 -26 -60 -36 -76 -40 -62 -12 15 27 108 71 150 71
20 0 47 -9 61 -19z m189 -17 c20 -26 29 -74 14 -74 -17 0 -30 16 -36 42 -4 14
-10 33 -13 42 -10 25 12 19 35 -10z m127 11 c-11 -8 -27 -15 -35 -15 -10 1 -7
6 9 15 33 19 50 18 26 0z m74 11 c0 -3 -4 -8 -10 -11 -5 -3 -10 -1 -10 4 0 6
5 11 10 11 6 0 10 -2 10 -4z m-387 -67 c20 -28 11 -55 -29 -80 -47 -29 -62
-20 -29 19 l26 32 -28 25 -28 24 37 1 c26 0 41 -6 51 -21z m-790 4 c-7 -2 -21
-2 -30 0 -10 3 -4 5 12 5 17 0 24 -2 18 -5z m157 -13 c-23 -18 -50 -26 -50
-15 0 6 53 34 65 34 6 0 -1 -8 -15 -19z m487 -8 c-10 -10 -17 -31 -17 -45 0
-29 -9 -34 -28 -15 -21 21 -13 48 20 68 37 22 49 18 25 -8z m-362 9 c-13 -12
-116 -53 -122 -48 -5 6 98 56 117 56 9 1 10 -2 5 -8z m433 -51 c-4 -18 -59
-21 -65 -3 -2 6 6 22 18 34 21 21 22 21 36 3 7 -10 12 -25 11 -34z m419 44
c-3 -3 -12 -4 -19 -1 -8 3 -5 6 6 6 11 1 17 -2 13 -5z m-1050 -51 c22 -27 22
-28 4 -31 -21 -3 -101 45 -101 61 0 21 75 -2 97 -30z m258 17 c-11 -5 -29 -9
-40 -9 -17 -1 -17 1 -5 9 8 5 26 9 40 9 23 0 23 -1 5 -9z m627 3 c-9 -4 -10
-8 -2 -18 14 -17 -7 -38 -74 -72 -28 -14 -70 -39 -93 -54 -42 -29 -63 -36 -63
-21 0 5 27 21 60 37 35 17 80 50 110 82 28 29 56 53 63 52 9 0 9 -2 -1 -6z
m98 -9 c0 -2 -7 -4 -15 -4 -8 0 -15 4 -15 10 0 5 7 7 15 4 8 -4 15 -8 15 -10z
m-615 -4 c3 -5 -1 -10 -9 -10 -9 0 -16 5 -16 10 0 6 4 10 9 10 6 0 13 -4 16
-10z m81 -35 c0 -27 -3 -34 -14 -30 -7 3 -16 5 -18 5 -12 0 -1 41 14 49 9 6
17 11 17 11 0 0 0 -16 1 -35z m-561 11 c19 -8 40 -26 46 -40 10 -21 8 -32 -16
-71 -15 -26 -41 -55 -57 -64 -16 -9 -46 -28 -65 -43 -60 -47 -183 -60 -214
-22 -13 16 -6 17 38 5 69 -20 182 31 209 95 16 38 33 44 41 14 6 -22 23 -17
23 6 0 27 -61 106 -94 120 l-31 13 43 1 c23 0 58 -7 77 -14z m-125 -26 c13 -9
13 -10 0 -10 -48 -1 -98 -26 -152 -77 -48 -47 -58 -52 -58 -35 0 12 15 38 32
58 52 59 138 90 178 64z m434 -34 c57 -24 51 -34 -18 -29 -59 5 -68 3 -130
-32 -37 -20 -70 -34 -74 -30 -12 12 70 75 117 90 59 18 65 18 105 1z m122 -5
c42 -26 60 -78 44 -126 -25 -74 -94 -130 -149 -119 -18 4 -47 0 -71 -10 -22
-9 -55 -16 -73 -16 -46 1 -116 35 -126 62 -12 33 -6 34 29 4 17 -14 41 -26 53
-27 12 0 42 -1 66 -3 39 -2 49 2 103 47 62 52 81 57 53 13 -10 -14 -13 -26 -7
-26 16 0 52 83 52 121 0 19 -7 47 -15 63 -8 15 -15 30 -15 32 0 10 28 2 56
-15z m-525 -1 c30 -16 26 -73 -8 -99 -14 -12 -27 -20 -29 -18 -2 2 1 20 7 40
13 47 6 57 -39 57 l-37 1 25 14 c30 17 55 19 81 5z m636 -23 c12 -11 25 -33
29 -49 5 -25 1 -35 -20 -55 -15 -13 -24 -29 -21 -34 8 -12 -25 -66 -62 -101
-44 -43 -135 -80 -185 -76 l-43 3 77 38 c54 27 92 54 127 93 27 29 56 54 64
54 23 0 25 20 6 70 -31 85 -32 91 -12 83 10 -3 28 -15 40 -26z m554 16 c14
-14 -66 -56 -91 -48 -10 3 -22 0 -26 -6 -5 -9 -2 -10 9 -6 8 3 21 -1 28 -9 7
-8 19 -12 27 -9 16 6 52 -21 52 -38 0 -6 -11 0 -25 13 -14 13 -25 18 -25 11 0
-7 -5 -9 -12 -5 -6 4 -53 10 -102 14 l-91 6 55 26 c30 14 62 29 70 31 9 3 5 6
-10 7 l-25 1 25 15 c28 16 124 14 141 -3z m-991 -3 c-19 -13 -30 -13 -30 0 0
6 10 10 23 10 18 0 19 -2 7 -10z m631 -20 c33 0 21 -18 -25 -35 -56 -21 -90
-17 -94 12 -3 19 2 22 35 26 21 2 44 2 51 0 8 -2 22 -3 33 -3z m412 -23 c7
-20 -8 -41 -23 -32 -9 5 -11 4 -6 -3 9 -15 1 -15 -25 -2 -25 14 -24 24 4 38
30 15 44 14 50 -1z m-1378 -79 c8 -21 -6 -23 -36 -8 -24 13 -25 47 -1 73 17
19 17 18 23 -14 4 -19 10 -42 14 -51z m79 59 c12 -19 3 -31 -31 -42 -19 -5
-23 -3 -23 17 0 26 18 50 34 45 5 -2 14 -11 20 -20z m470 14 c51 -20 32 -88
-35 -122 -23 -11 -43 -18 -45 -16 -3 3 9 18 26 35 35 36 37 52 10 77 -11 10
-20 22 -20 27 0 11 33 10 64 -1z m-153 -49 c-12 -17 -21 -42 -21 -55 0 -37
-16 -42 -36 -12 -14 21 -15 31 -5 51 10 22 70 59 80 49 2 -2 -6 -17 -18 -33z
m79 -13 c17 -31 5 -49 -34 -49 -45 0 -51 12 -21 44 29 31 41 33 55 5z m396 -4
c-25 -19 -36 -19 -36 0 0 10 10 15 28 15 26 -1 26 -1 8 -15z m264 7 c0 -4 -6
-14 -12 -21 -11 -10 -8 -10 14 0 34 15 83 -2 85 -31 1 -16 -2 -17 -21 -9 -18
8 -31 7 -54 -5 -42 -21 -63 -21 -55 2 10 26 -35 -32 -46 -61 -7 -18 -6 -30 5
-45 21 -30 -2 -39 -34 -15 -63 47 -45 128 38 171 45 22 80 29 80 14z m-860
-26 c0 -1 -5 -17 -11 -35 -26 -73 12 -106 137 -119 l79 -8 -44 -23 c-90 -47
-193 -12 -221 75 -12 35 -4 59 28 97 13 15 32 23 32 13z m660 -2 c0 -8 -91
-46 -97 -41 -3 3 12 15 34 26 38 20 63 26 63 15z m-998 -73 c45 -16 77 -14
143 9 75 26 88 21 48 -17 -97 -91 -306 -42 -252 59 l13 23 8 -32 c6 -22 17
-34 40 -42z m1266 1 c19 -13 3 -42 -23 -42 -23 0 -40 24 -29 41 6 11 35 11 52
1z m-280 -46 l4 -29 -31 24 c-38 30 -39 41 -3 37 21 -2 28 -9 30 -32z m200 -8
l47 -33 -33 -3 c-38 -4 -72 20 -72 50 0 24 4 23 58 -14z m-298 6 c0 -2 -7 -4
-15 -4 -8 0 -15 4 -15 10 0 5 7 7 15 4 8 -4 15 -8 15 -10z m2508 9 c-10 -2
-26 -2 -35 0 -10 3 -2 5 17 5 19 0 27 -2 18 -5z m-65 -10 c-7 -2 -13 -17 -13
-31 l1 -27 13 24 13 24 16 -24 c11 -15 13 -26 7 -35 -7 -8 -4 -19 8 -34 14
-18 25 -22 45 -16 38 9 41 9 45 -3 2 -6 -3 -11 -12 -11 -24 0 -19 -17 7 -24
l22 -6 -24 -20 c-13 -11 -34 -20 -48 -20 -24 0 -24 -1 9 -27 54 -45 61 -60 27
-59 -12 1 -24 -6 -26 -14 -4 -13 -3 -13 6 0 7 10 11 11 11 3 0 -7 8 -13 18
-14 13 0 12 -2 -5 -9 -13 -6 -23 -18 -23 -30 0 -20 -11 -26 -23 -13 -4 3 -2
12 4 19 6 7 8 18 4 24 -4 7 -19 1 -43 -16 -25 -20 -34 -23 -29 -11 4 11 1 17
-6 17 -7 0 -22 7 -33 16 -18 15 -18 15 4 9 34 -10 26 3 -13 19 -19 8 -35 19
-35 24 0 6 -8 13 -17 16 -15 6 -14 3 3 -16 24 -27 48 -65 57 -92 6 -16 5 -17
-8 -6 -8 7 -15 19 -15 26 0 8 -4 14 -9 14 -4 0 -20 17 -34 38 -35 52 -37 149
-3 207 22 39 78 86 100 84 6 0 6 -3 -1 -6z m-3440 -9 c4 -4 -2 -19 -13 -34
-12 -17 -20 -44 -20 -69 0 -45 -13 -53 -31 -20 -15 28 -4 77 23 106 22 24 30
27 41 17z m3567 -41 c0 -7 -4 -13 -9 -13 -5 0 -11 6 -14 13 -3 8 1 14 9 14 8
0 14 -6 14 -14z m-3348 -5 c6 -18 -3 -58 -13 -58 -11 0 -23 46 -14 59 8 15 22
14 27 -1z m760 -29 c30 -22 38 -49 13 -49 -9 0 -33 9 -53 19 l-38 19 -2 -38
c-2 -32 2 -42 21 -55 55 -36 62 -107 16 -160 -37 -41 -47 -40 -25 4 21 40 20
64 -4 111 -18 35 -25 39 -67 45 -71 10 -71 10 -30 30 21 10 36 20 33 22 -11
11 -164 -84 -203 -126 -23 -25 -45 -42 -48 -39 -4 3 -1 24 5 46 13 51 78 109
129 117 73 12 135 30 139 43 2 7 -6 12 -20 12 l-23 1 22 18 c19 16 29 17 64
10 23 -6 55 -19 71 -30z m-867 21 c8 -13 -13 -40 -30 -40 -15 0 -28 27 -19 41
7 12 41 11 49 -1z m191 -15 c15 -22 15 -30 3 -62 -31 -80 -64 -30 -43 65 6 29
20 28 40 -3z m1060 3 c-9 -5 -24 -7 -34 -5 -14 3 -12 6 8 14 29 12 50 5 26 -9z
m1619 -8 c-33 -4 -71 -12 -84 -19 -22 -12 -23 -14 -6 -23 11 -7 20 -7 24 -1 9
14 41 24 41 13 0 -5 -9 -12 -20 -15 -13 -4 -23 -18 -27 -36 -3 -16 -10 -29
-15 -29 -5 0 -7 8 -4 18 4 10 0 26 -7 35 -11 16 -14 15 -38 -12 -15 -17 -25
-32 -22 -34 2 -2 -3 -10 -12 -17 -23 -19 -20 7 7 45 41 61 123 97 193 86 23
-4 16 -7 -30 -11z m-1895 0 c0 -5 -10 -10 -22 -10 -19 0 -20 2 -8 10 19 13 30
13 30 0z m-1026 -40 c9 0 14 -4 11 -10 -9 -15 -61 -12 -74 4 -6 7 -8 21 -5 30
6 16 9 15 28 -3 12 -12 30 -21 40 -21z m1218 21 c13 -11 42 -21 64 -24 32 -3
30 -4 -16 -5 -54 -2 -100 16 -100 39 0 15 26 10 52 -10z m1850 -50 c5 -17 13
-29 18 -26 6 4 6 -4 0 -20 -7 -17 -7 -24 0 -20 6 4 10 -9 10 -32 0 -34 -1 -36
-16 -21 -10 10 -18 39 -21 74 -3 42 -11 66 -26 84 l-22 24 25 -15 c13 -9 28
-30 32 -48z m-2987 9 c-8 -13 -95 -44 -102 -36 -8 7 -9 6 47 33 43 20 66 21
55 3z m384 -15 c14 -13 22 -27 18 -31 -9 -9 -100 38 -105 55 -7 23 59 5 87
-24z m150 28 c-2 -13 -89 -86 -95 -80 -10 9 4 54 22 71 15 16 75 23 73 9z
m441 -3 c-20 -13 -43 -13 -35 0 3 6 16 10 28 10 18 0 19 -2 7 -10z m1430 0
c20 -6 21 -8 5 -8 -11 0 -33 4 -50 8 -27 7 -27 8 -5 8 14 0 36 -4 50 -8z
m-2162 -21 c3 -17 -34 -69 -49 -69 -10 0 -7 17 12 68 10 25 32 25 37 1z m2045
3 c-23 -9 -53 -28 -68 -42 -19 -17 -24 -20 -19 -7 8 22 82 67 109 66 12 0 4
-7 -22 -17z m1214 3 c9 -24 0 -25 -27 -5 l-25 20 23 0 c12 0 25 -7 29 -15z
m-2452 -4 c8 -14 -31 -33 -58 -29 -21 3 -20 5 8 20 35 20 42 21 50 9z m1785
-5 c0 -3 -4 -8 -10 -11 -5 -3 -10 -1 -10 4 0 6 5 11 10 11 6 0 10 -2 10 -4z
m-2800 -21 c11 -13 5 -18 -35 -36 -53 -23 -100 -21 -142 6 -29 19 -24 32 5 16
30 -16 72 -13 112 9 43 23 45 24 60 5z m870 -23 c27 -33 25 -58 -6 -121 -23
-45 -35 -57 -78 -77 -81 -38 -94 -30 -34 19 67 55 77 81 55 149 -9 28 -14 54
-12 58 9 14 56 -3 75 -28z m2260 12 c0 -8 -4 -14 -10 -14 -5 0 -10 9 -10 21 0
11 5 17 10 14 6 -3 10 -13 10 -21z m-1283 -5 c24 -12 51 -32 60 -45 8 -13 22
-24 30 -24 8 0 12 -4 9 -9 -3 -4 3 -19 14 -31 25 -28 26 -47 3 -29 -17 13 -17
13 0 -7 23 -27 22 -47 -4 -70 -16 -14 -20 -27 -16 -51 3 -18 1 -36 -5 -39 -5
-4 -7 -20 -4 -38 5 -29 5 -30 -9 -11 -23 30 -37 94 -30 134 6 33 5 35 -8 16
-13 -16 -17 -17 -31 -6 -10 9 -16 9 -16 2 0 -14 -55 -8 -75 9 -13 11 -14 10
-9 -4 5 -12 0 -16 -21 -16 -18 0 -24 -4 -19 -12 4 -7 -3 -4 -16 7 -16 14 -24
16 -27 7 -3 -6 -9 -10 -13 -7 -5 3 -5 16 0 30 7 17 5 25 -6 29 -8 3 -14 1 -14
-5 0 -6 -5 -7 -12 -3 -8 5 -6 11 7 20 17 12 17 14 1 20 -9 3 -24 0 -33 -7 -9
-8 -14 -9 -10 -2 4 6 2 13 -4 15 -7 2 11 15 39 29 28 14 49 22 46 17 -3 -4 0
-8 6 -8 6 0 8 -4 5 -10 -3 -5 -1 -10 5 -10 7 0 10 6 7 14 -3 8 2 16 14 19 12
3 17 1 12 -6 -4 -7 0 -8 11 -4 10 4 27 7 37 7 12 0 17 5 14 10 -4 6 -14 10
-23 9 -38 -3 -63 2 -57 11 4 6 21 8 42 4 21 -4 44 -2 58 6 20 11 28 10 49 -4
39 -25 55 -18 21 9 -16 14 -36 23 -43 20 -8 -3 -10 0 -6 7 5 7 0 9 -14 6 -12
-4 -20 -2 -16 3 7 12 -82 11 -128 -1 -47 -13 -99 -73 -114 -132 -10 -35 -12
-38 -13 -15 -1 32 28 94 55 118 62 54 173 66 251 28z m1074 14 c6 -68 5 -84
-7 -94 -17 -14 -18 0 -5 49 9 31 5 38 -22 33 -5 -1 -6 3 -2 9 7 12 35 14 36 3z
m-1751 -18 c-14 -17 -85 -21 -95 -6 -5 9 14 13 89 19 15 2 16 -1 6 -13z m1655
5 c3 -5 1 -10 -4 -10 -6 0 -11 5 -11 10 0 6 2 10 4 10 3 0 8 -4 11 -10z m-120
-10 c3 -5 1 -10 -4 -10 -6 0 -11 5 -11 10 0 6 2 10 4 10 3 0 8 -4 11 -10z
m-2636 -24 c9 -10 8 -15 -4 -20 -17 -6 -45 2 -45 13 0 23 32 28 49 7z m171 -4
c0 -20 -45 -50 -57 -39 -7 8 35 57 49 57 4 0 8 -8 8 -18z m430 -3 c0 -5 -15
-9 -33 -9 -35 0 -63 -22 -86 -68 -10 -19 -15 -21 -27 -11 -37 31 1 84 71 99
35 7 75 1 75 -11z m1000 -12 c0 -4 -6 -2 -14 5 -8 7 -12 17 -9 22 5 8 23 -12
23 -27z m-1346 1 c8 -13 7 -21 -2 -30 -11 -11 -16 -9 -28 6 -8 11 -14 26 -14
34 0 18 30 11 44 -10z m2508 6 c5 -3 1 -12 -9 -20 -12 -9 -13 -13 -5 -14 7 0
10 -4 7 -10 -3 -6 1 -7 9 -4 9 3 16 1 16 -5 0 -6 -6 -11 -14 -11 -8 0 -18 -5
-22 -12 -5 -7 -3 -8 6 -3 9 5 11 4 6 -3 -5 -8 -16 -5 -36 9 -15 12 -33 19 -38
15 -16 -10 -23 9 -15 44 6 31 7 32 46 26 22 -4 44 -9 49 -12z m54 -15 c10 -17
-13 -36 -27 -22 -12 12 -4 33 11 33 5 0 12 -5 16 -11z m-2831 -16 c37 -5 44
-8 30 -14 -25 -9 -78 -11 -99 -3 -9 3 -16 13 -16 21 0 10 6 13 18 8 9 -3 39
-9 67 -12z m1000 -14 c9 -17 14 -34 10 -37 -7 -8 -55 43 -55 59 0 21 31 7 45
-22z m-375 11 c13 -9 12 -13 -9 -30 -24 -21 -66 -27 -75 -11 -8 13 35 46 64
50 3 0 12 -4 20 -9z m1950 -20 c0 -16 -4 -30 -10 -30 -5 0 -8 13 -7 30 3 39
17 39 17 0z m-2135 -27 c9 -70 10 -72 60 -84 60 -15 57 -29 -6 -29 -43 0 -55
5 -80 29 -33 33 -38 74 -13 109 23 33 32 27 39 -25z m1729 32 c-7 -17 -20 -20
-29 -6 -3 5 3 12 12 14 10 3 19 5 20 6 1 0 0 -6 -3 -14z m-2272 -12 c11 -10
40 -20 66 -23 l47 -6 -31 -16 c-48 -26 -124 0 -124 43 0 24 18 24 42 2z m2394
7 c25 9 44 2 44 -17 0 -9 6 -13 15 -9 21 8 20 -30 -2 -43 -14 -8 -15 -12 -4
-25 7 -9 18 -13 24 -9 6 3 7 1 3 -5 -5 -9 -13 -8 -30 3 -13 9 -29 14 -36 13
-7 -2 -15 3 -17 10 -3 6 2 12 10 12 18 0 29 24 21 45 -7 17 -21 20 -26 5 -4
-13 -90 2 -95 16 -3 8 8 9 35 4 21 -3 47 -3 58 0z m124 -5 c0 -8 -4 -15 -10
-15 -5 0 -10 7 -10 15 0 8 5 15 10 15 6 0 10 -7 10 -15z m250 -27 c0 -20 -16
-32 -30 -23 -8 5 -8 11 -1 19 6 7 8 16 5 19 -3 3 -3 11 1 17 9 15 25 -6 25
-32z m-1760 -9 c0 -4 -9 -5 -20 -2 -23 6 -22 5 -13 29 6 16 7 16 20 -2 7 -10
13 -21 13 -25z m196 29 c4 -7 3 -8 -4 -4 -16 10 -15 -6 1 -24 10 -12 9 -12 -5
-1 -19 14 -24 41 -9 41 6 0 13 -5 17 -12z m1751 -20 c-3 -8 -6 -5 -6 6 -1 11
2 17 5 13 3 -3 4 -12 1 -19z m-2777 3 c0 -5 -11 -11 -25 -13 -24 -5 -32 2 -18
15 9 10 43 8 43 -2z m140 0 c0 -11 -31 -24 -39 -16 -3 3 1 10 9 15 19 12 30
12 30 1z m441 -20 c-12 -22 -61 -41 -105 -40 -31 0 -31 0 -6 11 14 5 43 18 65
28 51 24 58 24 46 1z m2164 -27 c-9 -9 -27 -16 -39 -16 -18 0 -22 -5 -19 -18
3 -10 0 -20 -5 -24 -5 -3 -12 8 -16 25 -5 27 -8 30 -21 19 -10 -8 -15 -9 -15
-2 0 14 40 37 57 34 7 -2 25 4 40 12 24 12 28 12 31 0 2 -8 -4 -21 -13 -30z
m644 36 c-6 -5 -18 -6 -26 -3 -19 8 -16 11 13 11 17 0 22 -3 13 -8z m-1199 -9
c-24 -7 -24 -7 -5 -19 19 -11 19 -11 -3 -12 -13 0 -33 5 -45 12 l-22 12 25 7
c14 4 36 7 50 7 l25 0 -25 -7z m320 -19 c0 -15 -2 -15 -10 -2 -13 20 -13 33 0
25 6 -3 10 -14 10 -23z m-630 -29 c0 -13 -4 -23 -10 -23 -5 0 -8 -6 -6 -12 1
-7 1 -10 -1 -5 -8 13 -23 8 -23 -8 0 -8 7 -15 15 -15 17 0 19 -9 6 -29 -13
-20 -41 41 -29 63 5 9 13 14 19 11 5 -4 9 11 9 32 0 28 3 34 10 23 5 -8 10
-25 10 -37z m730 38 c0 -6 -4 -13 -10 -16 -5 -3 -10 1 -10 9 0 9 5 16 10 16 6
0 10 -4 10 -9z m-1130 -17 c0 -2 -7 -4 -15 -4 -8 0 -15 4 -15 10 0 5 7 7 15 4
8 -4 15 -8 15 -10z m-1265 -4 c8 -13 -25 -13 -45 0 -12 8 -9 10 12 10 15 0 30
-4 33 -10z m2345 -42 c0 -6 -7 -5 -15 2 -8 7 -15 17 -15 22 0 6 7 5 15 -2 8
-7 15 -17 15 -22z m-2419 11 c11 -6 34 -11 50 -11 39 -1 23 -17 -25 -25 -27
-4 -41 -1 -56 12 -11 10 -20 22 -20 27 0 11 27 10 51 -3z m2104 -18 c-3 -6
-11 -8 -17 -5 -6 4 -5 9 3 15 16 10 23 4 14 -10z m100 9 c3 -5 2 -10 -4 -10
-5 0 -13 5 -16 10 -3 6 -2 10 4 10 5 0 13 -4 16 -10z m-1578 -16 c-3 -3 -12
-4 -19 -1 -8 3 -5 6 6 6 11 1 17 -2 13 -5z m871 -19 c-3 -3 -9 2 -12 12 -6 14
-5 15 5 6 7 -7 10 -15 7 -18z m-823 5 c8 -13 -5 -13 -25 0 -13 8 -13 10 2 10
9 0 20 -4 23 -10z m1512 -15 c-15 -16 -22 -11 -13 10 3 9 10 13 16 10 6 -4 5
-11 -3 -20z m1043 4 c0 -5 -4 -9 -10 -9 -5 0 -10 7 -10 16 0 8 5 12 10 9 6 -3
10 -10 10 -16z m68 -7 c-5 -25 -23 -24 -23 2 0 15 5 22 13 18 7 -2 12 -11 10
-20z m-542 -17 c109 -64 158 -212 100 -304 -14 -22 -31 -41 -38 -44 -7 -4 2
-4 20 -1 37 5 42 -10 12 -36 -23 -20 -23 -21 40 -41 67 -21 134 -92 156 -165
19 -67 14 -169 -11 -207 -8 -13 -12 -27 -8 -31 5 -4 1 -6 -7 -4 -9 2 -14 -4
-14 -14 1 -10 -4 -14 -12 -11 -8 3 -14 0 -14 -7 0 -7 -7 -10 -15 -6 -8 3 -20
0 -27 -7 -7 -7 -29 -12 -49 -13 l-36 -1 -6 61 c-8 87 -36 166 -61 176 -25 9
-31 6 -20 -12 4 -7 9 -19 10 -28 0 -8 5 -32 9 -52 9 -47 -8 -51 -25 -5 -61
161 -101 217 -155 217 -32 0 -31 5 6 47 32 37 33 48 5 37 -9 -3 -13 -11 -10
-18 3 -6 -2 -2 -10 8 -11 13 -30 20 -59 21 -54 2 -67 10 -68 38 -1 20 -2 20
-9 -3 -7 -22 -9 -21 -10 5 0 3 -10 26 -21 52 -49 114 -30 224 55 308 80 80
179 94 272 40z m-630 -7 c-3 -17 -8 -34 -11 -36 -11 -11 -16 9 -10 37 9 42 29
41 21 -1z m1210 -6 c1 -18 -2 -20 -17 -11 -11 5 -16 16 -12 25 8 21 28 12 29
-14z m-273 -41 c2 -10 1 -25 -4 -32 -6 -10 -9 -4 -9 19 0 36 5 42 13 13z m-44
-45 c-9 -8 -10 -7 -5 7 3 10 7 24 7 30 1 7 3 4 6 -7 3 -10 -1 -23 -8 -30z m71
27 c0 -10 -4 -24 -9 -31 -5 -9 -8 -3 -7 17 1 32 16 45 16 14z m127 11 c13 -4
21 -10 18 -14 -6 -10 -86 -1 -99 11 -11 10 47 12 81 3z m-1071 -41 c13 -8 24
-21 24 -28 0 -8 9 -17 20 -20 11 -3 20 -13 20 -21 0 -8 4 -14 9 -14 12 0 21
-39 10 -46 -5 -3 -15 -20 -23 -37 -13 -32 -67 -72 -80 -60 -3 4 1 17 9 30 9
13 14 23 13 24 -2 0 -28 3 -58 5 -66 5 -83 10 -75 24 4 7 30 8 71 4 61 -6 65
-6 71 15 4 16 9 19 18 11 9 -8 15 -8 20 0 9 14 -4 32 -17 24 -6 -4 -8 -2 -5 3
4 6 -2 22 -13 35 -11 14 -16 28 -12 32 3 4 -1 4 -10 1 -14 -6 -15 -10 -6 -25
9 -15 9 -25 -2 -44 -17 -33 -32 -34 -24 -1 12 50 -35 68 -116 45 -45 -13 -57
0 -26 29 44 42 130 48 182 14z m1144 18 c0 -5 -7 -14 -15 -21 -8 -7 -15 -10
-15 -7 0 3 -3 12 -6 21 -4 12 0 16 15 16 12 0 21 -4 21 -9z m-1399 -28 c13
-16 12 -17 -3 -4 -17 13 -22 21 -14 21 2 0 10 -8 17 -17z m1314 -3 c18 -8 17
-9 -7 -9 -16 -1 -28 4 -28 9 0 12 8 12 35 0z m-1675 -18 c0 -8 -46 -41 -58
-42 -7 0 -38 -12 -68 -26 -31 -14 -57 -24 -60 -22 -8 8 76 69 114 82 34 13 72
17 72 8z m137 -33 c24 -12 51 -32 60 -45 8 -13 19 -22 23 -19 4 3 14 -3 21
-12 9 -11 10 -14 2 -9 -16 9 -6 -50 14 -79 18 -26 16 -45 -2 -21 -15 19 -15
19 -15 -3 0 -13 10 -39 21 -58 12 -19 19 -37 15 -40 -3 -4 -6 -1 -6 5 0 7 -8
12 -19 12 -14 0 -25 21 -51 99 -24 74 -37 101 -52 104 -15 4 -18 2 -12 -11 3
-9 12 -31 18 -49 7 -18 20 -41 29 -51 9 -10 14 -21 11 -24 -3 -4 2 -17 10 -30
9 -14 13 -28 9 -31 -3 -4 -2 -7 4 -7 7 0 8 -11 3 -32 -21 -89 -22 -93 -12 -79
6 8 12 9 16 3 10 -16 -21 -22 -34 -6 -19 22 -49 18 -43 -6 3 -12 0 -20 -6 -20
-21 0 -2 -17 24 -22 13 -3 37 2 52 11 27 16 63 17 63 3 0 -4 -20 -20 -45 -37
-24 -16 -45 -33 -45 -38 0 -4 -13 -1 -30 8 -36 19 -70 19 -70 1 0 -8 8 -12 23
-9 18 4 33 -5 58 -32 19 -20 42 -41 52 -46 16 -9 17 -8 8 9 -6 11 -7 22 -4 26
3 3 2 6 -4 6 -6 0 -14 8 -17 17 -5 13 0 11 18 -6 14 -13 23 -29 19 -35 -3 -6
-3 -8 2 -4 17 16 34 -12 25 -42 -4 -16 -6 -31 -2 -34 12 -13 22 -5 22 17 0 18
2 19 10 7 12 -19 10 -80 -3 -77 -5 1 -12 -4 -15 -12 -3 -9 0 -11 9 -6 11 6 12
5 2 -6 -18 -18 -16 -34 2 -19 12 10 15 10 15 -4 0 -9 -5 -16 -11 -16 -5 0 -16
-15 -24 -34 -8 -19 -20 -38 -26 -42 -8 -5 -8 -1 0 14 14 26 14 42 0 42 -5 0
-8 -4 -4 -9 3 -5 -4 -12 -15 -16 -11 -3 -20 -10 -20 -14 0 -4 -9 -7 -20 -8
-11 -1 -19 2 -17 7 2 8 -3 10 -23 10 -19 0 -10 -21 13 -30 12 -5 16 -9 10 -9
-7 -1 -13 -10 -13 -20 0 -37 -19 -31 -22 6 -3 36 -5 38 -33 35 -16 -1 -37 -2
-47 -3 -9 0 -19 -10 -23 -22 -4 -14 -8 -17 -12 -9 -2 7 -12 16 -22 21 -14 8
-17 5 -16 -19 0 -15 4 -26 8 -23 12 7 48 -28 41 -39 -3 -5 -13 -1 -21 9 -8 10
-11 12 -8 5 6 -12 3 -12 -15 -2 -18 10 -24 9 -32 -1 -8 -11 -9 -10 -4 4 3 9 2
25 -1 34 -5 13 -10 9 -20 -18 l-13 -34 6 35 c4 26 3 31 -5 20 -6 -8 -11 -11
-11 -6 0 4 -9 -2 -19 -15 -17 -20 -22 -22 -33 -10 -7 8 -8 11 -2 8 7 -4 17 -1
23 7 8 10 6 17 -9 31 -15 14 -20 15 -21 4 0 -8 -10 6 -21 31 -28 61 -29 152
-3 208 16 37 21 41 31 28 10 -14 14 -14 36 4 14 10 28 17 32 15 3 -3 2 0 -3 7
-7 8 -17 7 -35 -6 -23 -14 -26 -15 -26 -1 0 8 15 24 33 35 32 21 84 22 146 4
17 -5 22 -4 17 4 -4 7 -13 12 -20 12 -8 0 -19 6 -25 14 -9 11 -5 15 21 21 30
6 31 7 12 17 -22 10 -44 75 -45 136 0 30 -2 33 -9 17 -7 -16 -9 -12 -10 20 -1
22 -4 32 -7 23 -2 -9 -10 -15 -18 -12 -8 3 -12 11 -9 18 3 7 -2 19 -11 26 -13
11 -15 8 -16 -16 l-1 -29 -10 29 c-8 22 -7 30 3 37 10 6 11 9 1 9 -22 0 10 40
33 40 11 0 27 5 35 10 13 9 13 12 -2 21 -23 13 -23 67 0 95 39 49 91 56 159
23z m-329 -104 c-6 -14 -13 -23 -15 -21 -5 5 15 46 22 46 3 0 -1 -11 -7 -25z
m1957 -3 c2 -11 -5 -28 -14 -36 -17 -16 -18 -15 -14 11 10 59 19 68 28 25z
m-1212 -26 c15 -4 27 -10 27 -14 0 -7 -23 -8 -72 -4 -10 1 -18 9 -18 18 0 10
6 14 18 11 9 -3 29 -8 45 -11z m1002 -16 c3 -6 -1 -7 -9 -4 -18 7 -21 14 -7
14 6 0 13 -4 16 -10z m55 -20 c13 -9 13 -10 0 -10 -8 0 -22 5 -30 10 -13 9
-13 10 0 10 8 0 22 -5 30 -10z m265 -20 c-3 -5 -14 -10 -23 -9 -14 0 -13 2 3
9 27 11 27 11 20 0z m52 4 c-3 -3 -12 -4 -19 -1 -8 3 -5 6 6 6 11 1 17 -2 13
-5z m53 -14 c0 -5 -6 -10 -12 -10 -9 0 -8 -4 2 -10 15 -9 13 -11 -12 -14 -20
-2 -15 -31 5 -30 9 1 17 -3 17 -10 1 -6 7 0 15 14 8 14 14 21 14 15 1 -5 -3
-17 -8 -24 -6 -9 -6 -22 0 -32 8 -15 4 -19 -26 -25 -19 -3 -32 -10 -29 -15 3
-5 -1 -9 -9 -9 -8 0 -25 -9 -38 -21 -19 -16 -20 -19 -6 -15 12 4 17 2 14 -6
-4 -13 -50 -15 -92 -6 -27 7 -31 34 -5 41 11 3 20 2 20 -3 0 -4 8 -10 19 -13
22 -6 76 37 76 61 0 12 8 16 28 14 15 -1 27 2 27 8 0 5 -12 10 -26 10 -24 0
-26 3 -20 30 7 36 6 36 -24 10 -25 -21 -40 -26 -40 -11 0 5 13 14 29 21 16 6
32 18 35 26 6 16 46 19 46 4z m-2580 -45 c0 -5 -5 -3 -10 5 -5 8 -10 20 -10
25 0 6 5 3 10 -5 5 -8 10 -19 10 -25z m2656 3 c5 -8 2 -9 -9 -5 -24 9 -21 -6
8 -37 28 -30 29 -34 15 -56 -8 -13 -10 -13 -10 2 0 10 -9 18 -22 20 -23 3 -23
5 -14 63 4 25 4 25 15 25 6 0 13 -5 17 -12z m-326 -8 c0 -5 -5 -10 -11 -10 -5
0 -7 5 -4 10 3 6 8 10 11 10 2 0 4 -4 4 -10z m124 -27 c20 8 20 -2 1 -23 -14
-15 -14 -18 -1 -23 10 -4 13 -1 9 9 -3 8 1 14 11 14 9 0 16 5 16 10 0 6 6 10
13 10 21 0 14 -41 -10 -57 -30 -20 -52 -10 -59 27 -6 28 -24 43 -24 19 0 -5
-4 -7 -10 -4 -5 3 -10 1 -10 -6 0 -7 -2 -10 -5 -7 -3 3 -3 12 1 21 7 19 36 27
45 13 4 -5 14 -6 23 -3z m141 -72 c-3 -6 -14 -11 -23 -11 -13 0 -13 2 4 14 21
15 30 14 19 -3z m55 -1 c0 -11 -30 -21 -40 -15 -17 10 1 33 21 28 10 -3 19 -9
19 -13z m-1655 -20 c10 -11 16 -20 13 -20 -3 0 -13 9 -23 20 -10 11 -16 20
-13 20 3 0 13 -9 23 -20z m353 2 c2 -6 11 -8 21 -5 27 7 116 -84 132 -136 14
-47 0 -97 -25 -88 -8 3 -17 -1 -20 -9 -3 -9 -10 -13 -16 -9 -5 3 -23 -1 -39
-10 -34 -17 -55 -20 -46 -5 3 6 1 10 -4 10 -15 0 -14 -15 2 -28 8 -6 20 -6 37
1 39 16 49 16 43 1 -4 -10 0 -12 12 -8 15 6 15 4 4 -14 -7 -11 -16 -19 -20
-17 -3 3 -15 -2 -25 -10 -14 -10 -15 -14 -5 -15 21 0 4 -13 -22 -17 -17 -3
-19 -1 -9 9 16 16 15 33 -1 19 -11 -8 -18 -6 -32 9 -20 22 -35 26 -35 9 0 -5
6 -7 13 -3 7 4 7 2 -2 -7 -10 -11 -15 -11 -18 -1 -3 6 -8 10 -13 7 -4 -2 -7 7
-7 20 0 27 7 31 23 15 8 -8 15 -6 25 6 12 15 12 16 -9 10 -15 -5 -21 -4 -19 6
2 7 2 10 0 6 -3 -5 -11 -8 -18 -8 -7 0 -15 -6 -18 -12 -3 -10 -7 -10 -20 1
-15 12 -17 11 -17 -12 0 -24 -25 -55 -36 -44 -3 3 -1 15 6 26 7 15 7 21 0 21
-6 0 -13 -7 -16 -15 -4 -8 -13 -15 -22 -15 -13 0 -12 4 4 22 15 19 16 20 2 9
-16 -12 -18 -11 -18 8 0 11 -4 21 -10 21 -5 0 -10 6 -10 14 0 8 -7 17 -16 20
-9 4 -14 9 -11 12 3 3 -3 14 -14 25 -12 12 -19 33 -19 56 0 30 8 44 44 78 24
24 61 47 82 53 45 13 157 8 162 -6z m-480 -28 c-4 -3 -12 5 -18 18 -12 22 -12
22 6 6 10 -10 15 -20 12 -24z m33 9 c-12 -20 -14 -14 -5 12 4 9 9 14 11 11 3
-2 0 -13 -6 -23z m1655 1 c-4 -12 -2 -15 9 -10 13 5 14 2 4 -15 -7 -13 -16
-18 -26 -14 -9 3 -20 0 -24 -7 -4 -7 -11 -9 -15 -6 -3 4 7 20 22 36 34 35 38
37 30 16z m107 -1 c2 -10 8 -27 13 -37 5 -14 4 -17 -4 -12 -8 5 -10 2 -6 -8 3
-9 10 -14 15 -11 4 3 3 -9 -4 -27 -8 -23 -12 -28 -15 -15 -2 9 -8 17 -13 17
-6 0 -6 7 -1 18 9 19 8 48 -3 75 -4 9 -3 17 3 17 5 0 12 -8 15 -17z m43 -28
c-17 -17 -21 -9 -10 20 5 11 10 13 17 6 6 -6 4 -15 -7 -26z m-356 11 c0 -3 -4
-8 -10 -11 -5 -3 -10 -1 -10 4 0 6 5 11 10 11 6 0 10 -2 10 -4z m96 -19 c4 -4
16 -7 26 -7 10 0 18 -5 18 -11 0 -7 -7 -8 -17 -4 -10 4 -29 8 -42 9 -13 1 -26
6 -28 12 -4 11 32 12 43 1z m144 -22 c-7 -9 -15 -13 -17 -11 -7 7 7 26 19 26
6 0 6 -6 -2 -15z m-269 -13 c-5 -10 -18 -25 -27 -33 -11 -9 -9 -2 6 19 26 35
36 42 21 14z m-616 -53 c66 -63 84 -98 87 -162 1 -39 -2 -47 -24 -51 -7 -1
-22 -7 -33 -13 -11 -6 -29 -9 -40 -7 -20 3 -20 3 -1 -12 11 -8 15 -14 10 -14
-20 0 -72 66 -89 113 -14 37 -16 63 -11 118 10 111 14 112 101 28z m647 29
c-7 -7 -12 -8 -12 -2 0 14 12 26 19 19 2 -3 -1 -11 -7 -17z m278 12 c0 -5 -2
-10 -4 -10 -3 0 -8 5 -11 10 -3 6 -1 10 4 10 6 0 11 -4 11 -10z m-1587 -40
c-3 -12 -8 -19 -11 -16 -5 6 5 36 12 36 2 0 2 -9 -1 -20z m1571 11 c3 -5 0
-13 -7 -19 -10 -8 -13 -6 -13 9 0 20 11 25 20 10z m96 -5 c0 -2 -7 -9 -15 -16
-13 -11 -14 -10 -9 4 5 14 24 23 24 12z m-1640 -147 c0 -16 -19 -9 -30 10 -17
33 -11 48 10 22 11 -13 20 -27 20 -32z m461 -12 c-13 -53 -41 -121 -47 -115
-2 3 3 21 11 41 8 20 20 60 27 89 6 29 13 47 16 40 2 -7 -1 -32 -7 -55z m-514
31 c-3 -8 -6 -5 -6 6 -1 11 2 17 5 13 3 -3 4 -12 1 -19z m122 -73 c0 -5 -4 -3
-9 5 -5 8 -9 22 -9 30 0 16 17 -16 18 -35z m319 10 c-6 -14 -15 -25 -20 -25
-5 0 -1 11 8 25 9 14 18 25 20 25 2 0 -2 -11 -8 -25z m-183 -21 c22 -19 30
-30 19 -25 -12 6 -25 7 -29 3 -3 -4 -5 -1 -3 7 2 7 -3 16 -11 19 -8 2 -11 0
-7 -6 3 -6 2 -13 -4 -17 -5 -3 -10 -1 -10 4 0 6 -7 11 -15 11 -22 0 -19 -10
12 -42 20 -21 23 -28 11 -28 -9 0 -20 9 -23 20 -3 11 -11 20 -16 20 -6 0 -7
-5 -3 -12 4 -7 3 -8 -4 -4 -7 4 -12 16 -12 26 0 14 -5 18 -17 13 -11 -4 -14
-3 -9 6 4 6 16 9 26 6 13 -4 22 1 30 15 14 27 18 26 65 -16z m-562 -149 c10
-14 15 -25 11 -25 -11 0 -44 32 -44 42 0 15 15 8 33 -17z m-2114 -149 c12 -13
23 -36 24 -52 2 -26 -1 -29 -30 -32 -38 -4 -83 33 -83 68 0 23 15 27 24 5 3
-8 20 -24 38 -35 18 -11 28 -20 22 -20 -6 0 -23 9 -38 21 -14 11 -26 16 -26
10 0 -14 41 -41 62 -41 13 0 18 8 18 25 0 25 -31 65 -51 65 -5 0 3 -11 18 -24
15 -13 26 -27 23 -29 -3 -3 -23 10 -44 29 l-38 34 29 0 c18 0 38 -9 52 -24z
m-254 -46 l-120 -5 -3 -207 -3 -208 339 0 c186 0 341 2 343 4 2 2 3 97 1 210
l-3 205 -112 4 -112 3 123 2 122 2 0 -220 0 -220 -355 0 -355 0 0 220 0 220
128 -2 127 -2 -120 -6z m235 -91 c0 -5 -4 -9 -10 -9 -5 0 -10 7 -10 16 0 8 5
12 10 9 6 -3 10 -10 10 -16z m-126 -5 c10 -27 7 -71 -7 -82 -11 -9 -13 -2 -13
36 1 35 -3 47 -15 50 -23 4 -33 -27 -15 -47 8 -9 16 -27 18 -41 1 -14 7 -28
13 -32 5 -4 6 -10 2 -14 -4 -4 -21 5 -37 21 -26 25 -29 34 -24 64 4 20 11 42
17 49 14 17 54 15 61 -4z m233 -63 c-8 -33 10 -25 22 9 7 20 17 30 30 30 17 0
21 -6 21 -35 0 -19 -3 -35 -7 -36 -5 -1 -25 -2 -45 -3 -37 -3 -38 -2 -38 33 0
24 -3 31 -9 23 -6 -11 -9 -9 -14 7 -7 29 2 33 25 11 13 -12 19 -26 15 -39z
m-120 14 c-6 -40 9 -48 19 -10 9 36 28 49 45 29 11 -14 10 -18 -10 -34 -18
-13 -21 -19 -11 -25 8 -5 18 -1 27 10 7 11 13 14 13 8 0 -20 -31 -37 -48 -27
-9 5 -43 9 -74 8 -57 -1 -58 -1 -58 27 0 15 5 31 11 35 8 5 10 -3 7 -25 -3
-20 -1 -30 6 -28 6 2 12 16 14 30 2 15 8 27 13 27 6 0 9 -10 7 -22 -3 -27 16
-37 20 -11 5 29 11 43 18 43 4 0 4 -16 1 -35z m-218 -112 c0 -11 -3 -13 -6 -5
-2 6 -9 12 -14 12 -12 0 -12 -57 1 -65 6 -3 10 -1 10 4 0 6 5 11 12 11 8 0 7
-6 -4 -16 -9 -9 -21 -13 -27 -10 -12 8 -15 68 -4 79 13 13 33 7 32 -10z m48
-5 c8 42 18 22 14 -25 -3 -27 -7 -38 -9 -25 -2 12 -7 22 -12 22 -5 0 -11 -10
-13 -22 -2 -13 -5 0 -5 27 -1 45 0 47 10 25 11 -25 11 -25 15 -2z m71 -20 c-4
-51 -31 -61 -36 -15 -4 37 4 57 23 57 13 0 15 -9 13 -42z m61 25 c0 -11 -3
-13 -6 -5 -10 24 -23 11 -23 -23 0 -33 13 -47 23 -25 3 6 4 5 3 -2 -2 -7 -9
-13 -17 -13 -9 0 -15 14 -17 43 -3 37 -1 42 17 42 14 0 21 -6 20 -17z m59 -25
c-4 -51 -31 -61 -36 -15 -4 37 4 57 23 57 13 0 15 -9 13 -42z m45 -40 c8 -5 6
-8 -5 -8 -15 0 -18 8 -16 48 1 47 1 47 5 7 3 -22 10 -43 16 -47z m71 51 c3
-17 6 -39 6 -48 0 -13 -2 -14 -9 -2 -8 13 -12 13 -27 0 -15 -12 -16 -12 -11 6
3 11 9 32 13 48 8 36 20 34 28 -4z m48 -14 c-2 -25 -8 -45 -12 -45 -4 0 -10
20 -12 45 -2 35 0 45 12 45 12 0 14 -10 12 -45z m56 38 c-20 -5 -23 -19 -7
-29 8 -4 7 -9 -2 -15 -11 -8 -10 -12 5 -24 19 -15 19 -15 -2 -15 -19 0 -22 5
-22 45 0 40 2 45 23 44 16 -1 18 -2 5 -6z"/>
<path d="M4315 2400 c-3 -5 -2 -10 4 -10 5 0 13 5 16 10 3 6 2 10 -4 10 -5 0
-13 -4 -16 -10z"/>
<path d="M4270 2310 c0 -5 5 -10 11 -10 5 0 7 5 4 10 -3 6 -8 10 -11 10 -2 0
-4 -4 -4 -10z"/>
<path d="M4350 2285 c-9 -11 -9 -15 -1 -15 6 0 11 -7 11 -16 0 -14 1 -14 16 0
14 14 14 18 1 31 -13 13 -16 13 -27 0z"/>
<path d="M4271 2233 c-1 -23 4 -33 14 -33 12 0 13 5 7 18 -5 9 -12 24 -15 32
-3 8 -6 0 -6 -17z"/>
<path d="M4415 2198 c-9 -23 -3 -39 11 -30 7 4 8 15 4 27 -7 18 -9 18 -15 3z"/>
<path d="M4312 2178 c3 -7 12 -14 21 -16 12 -2 15 1 11 12 -7 19 -38 22 -32 4z"/>
<path d="M2740 2126 c0 -2 11 -6 25 -8 13 -3 22 -1 19 3 -5 9 -44 13 -44 5z"/>
<path d="M2888 2083 c7 -3 16 -2 19 1 4 3 -2 6 -13 5 -11 0 -14 -3 -6 -6z"/>
<path d="M2804 2055 c18 -18 32 -19 42 -3 5 8 2 9 -9 5 -9 -3 -19 -2 -22 3 -4
6 -11 10 -16 10 -6 0 -4 -7 5 -15z"/>
<path d="M3055 2060 c3 -5 8 -10 11 -10 2 0 4 5 4 10 0 6 -5 10 -11 10 -5 0
-7 -4 -4 -10z"/>
<path d="M3865 2170 c3 -5 13 -10 21 -10 8 0 14 5 14 10 0 6 -9 10 -21 10 -11
0 -17 -4 -14 -10z"/>
<path d="M3940 1589 c0 -5 5 -9 11 -9 5 0 8 -4 5 -8 -3 -5 4 -19 15 -30 23
-26 34 -28 25 -7 -5 13 -2 13 20 -1 13 -9 26 -15 29 -13 2 3 -9 13 -26 24 -16
11 -29 25 -29 31 0 7 -11 14 -25 16 -14 3 -25 1 -25 -3z"/>
<path d="M4147 1572 c-9 -2 -15 -8 -12 -13 8 -12 45 -12 45 0 0 13 -12 18 -33
13z"/>
<path d="M3860 1541 c0 -5 7 -12 16 -15 24 -9 28 -7 14 9 -14 17 -30 20 -30 6z"/>
<path d="M4030 1503 c0 -5 13 -22 29 -37 16 -16 40 -53 52 -82 15 -39 27 -54
40 -54 11 0 19 3 19 7 0 16 -62 131 -78 145 -21 19 -62 32 -62 21z"/>
<path d="M3030 1765 c0 -5 56 -35 66 -35 4 0 -1 9 -11 20 -16 17 -55 28 -55
15z"/>
<path d="M2970 1725 c-9 -11 -10 -25 -4 -47 13 -45 30 -45 42 2 9 35 8 42 -8
50 -13 7 -21 5 -30 -5z"/>
<path d="M2840 1606 c0 -2 7 -7 16 -10 8 -3 12 -2 9 4 -6 10 -25 14 -25 6z"/>
<path d="M2916 1575 c-7 -29 -1 -45 17 -45 8 0 8 3 -1 9 -9 5 -11 17 -6 34 3
15 4 27 1 27 -3 0 -8 -11 -11 -25z"/>
<path d="M2922 1473 c1 -46 1 -46 15 -20 10 20 11 32 3 47 -16 30 -19 25 -18
-27z"/>
<path d="M2965 1320 c-19 -7 -19 -8 -2 -15 19 -8 31 -2 26 13 -2 5 -13 6 -24
2z"/>
<path d="M3003 1273 c9 -2 23 -2 30 0 6 3 -1 5 -18 5 -16 0 -22 -2 -12 -5z"/>
<path d="M2810 1210 c0 -6 7 -10 15 -10 8 0 15 2 15 4 0 2 -7 6 -15 10 -8 3
-15 1 -15 -4z"/>
<path d="M2907 1185 c-10 -14 -13 -25 -8 -25 6 0 15 9 21 20 7 12 16 17 27 13
11 -4 14 -3 9 5 -11 19 -29 14 -49 -13z"/>
<path d="M2966 1183 c-4 -9 -2 -21 4 -27 7 -7 10 -2 10 17 0 31 -5 34 -14 10z"/>
<path d="M2747 1183 c-3 -5 1 -17 9 -28 12 -16 16 -17 23 -6 5 7 14 10 20 7 6
-4 11 -3 11 2 0 5 -8 12 -17 16 -10 3 -23 8 -30 12 -6 3 -13 1 -16 -3z"/>
<path d="M2945 1140 c3 -5 8 -10 11 -10 2 0 4 5 4 10 0 6 -5 10 -11 10 -5 0
-7 -4 -4 -10z"/>
<path d="M3180 1127 c0 -17 -15 -23 -23 -9 -2 4 -2 1 0 -7 2 -8 -2 -18 -9 -23
-9 -5 -6 -8 8 -8 15 0 24 8 28 26 4 15 5 29 1 32 -3 3 -5 -2 -5 -11z"/>
<path d="M2720 1094 c0 -19 5 -34 11 -34 6 0 9 6 6 14 -3 8 1 17 9 20 20 8 17
23 -6 29 -17 4 -20 0 -20 -29z"/>
<path d="M2764 1084 c3 -9 6 -23 6 -32 0 -15 2 -15 10 -2 8 13 10 12 10 -4 0
-11 3 -16 6 -13 9 9 -16 67 -28 67 -6 0 -7 -7 -4 -16z"/>
<path d="M2994 1058 c-7 -11 18 -10 36 2 11 7 10 9 -8 7 -13 -1 -26 -5 -28 -9z"/>
<path d="M3150 1040 c0 -5 5 -10 10 -10 6 0 10 5 10 10 0 6 -4 10 -10 10 -5 0
-10 -4 -10 -10z"/>
<path d="M2902 1018 c3 -7 15 -15 28 -16 21 -3 22 -2 11 12 -16 19 -44 21 -39
4z"/>
<path d="M2872 1000 c13 -20 28 -27 28 -12 0 4 -9 13 -20 20 -19 12 -20 11 -8
-8z"/>
<path d="M2756 994 c-9 -23 -8 -27 8 -21 8 3 16 -2 19 -14 3 -10 10 -19 16
-19 6 0 1 16 -10 35 -24 40 -25 41 -33 19z"/>
<path d="M3692 1390 c13 -20 28 -27 28 -12 0 4 -9 13 -20 20 -19 12 -20 11 -8
-8z"/>
<path d="M3540 1365 c0 -2 10 -10 23 -16 20 -11 21 -11 8 4 -13 16 -31 23 -31
12z"/>
<path d="M3757 1334 c-4 -4 -7 -14 -7 -23 0 -11 3 -12 11 -4 6 6 10 16 7 23
-2 6 -7 8 -11 4z"/>
<path d="M3770 1300 c0 -5 5 -10 10 -10 6 0 10 5 10 10 0 6 -4 10 -10 10 -5 0
-10 -4 -10 -10z"/>
<path d="M3770 1270 c0 -5 5 -10 10 -10 6 0 10 5 10 10 0 6 -4 10 -10 10 -5 0
-10 -4 -10 -10z"/>
<path d="M3705 1120 c-3 -6 1 -7 9 -4 18 7 21 14 7 14 -6 0 -13 -4 -16 -10z"/>
<path d="M694 569 c-3 -6 -1 -16 5 -22 8 -8 11 -5 11 11 0 24 -5 28 -16 11z"/>
<path d="M1039 585 c-1 -8 -2 -19 -3 -25 -1 -5 4 -10 9 -10 6 0 10 11 11 25 1
26 -15 36 -17 10z"/>
<path d="M920 589 c0 -5 5 -7 10 -4 6 3 10 8 10 11 0 2 -4 4 -10 4 -5 0 -10
-5 -10 -11z"/>
<path d="M750 445 c0 -19 5 -35 10 -35 6 0 10 16 10 35 0 19 -4 35 -10 35 -5
0 -10 -16 -10 -35z"/>
<path d="M870 445 c0 -19 5 -35 10 -35 6 0 10 16 10 35 0 19 -4 35 -10 35 -5
0 -10 -16 -10 -35z"/>
<path d="M990 440 c0 -5 5 -10 10 -10 6 0 10 5 10 10 0 6 -4 10 -10 10 -5 0
-10 -4 -10 -10z"/>
</g>
</svg>
