<?xml version="1.0" standalone="no"?>
<!DOCTYPE svg PUBLIC "-//W3C//DTD SVG 20010904//EN"
 "http://www.w3.org/TR/2001/REC-SVG-20010904/DTD/svg10.dtd">
<svg version="1.0" xmlns="http://www.w3.org/2000/svg"
 width="413.000000pt" height="377.000000pt" viewBox="0 0 413.000000 377.000000"
 preserveAspectRatio="xMidYMid meet">

<g transform="translate(0.000000,377.000000) scale(0.100000,-0.100000)"
fill="#000000" stroke="none">
<path d="M1252 3040 c-65 -40 -62 19 -62 -1161 0 -1172 -3 -1109 58 -1154 26
-19 45 -20 638 -23 674 -3 671 -3 711 57 l23 34 0 878 0 879 -40 20 c-59 30
-80 70 -80 151 0 48 -4 70 -16 79 -39 33 -67 101 -69 170 -2 38 -6 74 -10 79
-4 8 -182 11 -563 11 -541 0 -558 -1 -590 -20z m1078 -94 c0 -43 24 -110 57
-161 19 -29 27 -54 28 -97 3 -69 39 -138 90 -171 l35 -22 0 -388 0 -388 -32 6
c-18 3 -102 16 -187 30 -84 13 -156 27 -159 30 -4 3 -6 27 -5 53 0 26 1 84 2
130 l1 82 114 0 c124 0 144 8 132 55 -6 24 -8 24 -124 27 l-117 3 -3 168 -2
167 105 0 c59 0 115 5 126 10 43 23 9 83 -45 80 -17 -1 -66 -2 -108 -1 l-78 1
0 153 c0 162 -4 177 -47 177 -36 0 -43 -30 -43 -184 l0 -145 -112 -3 c-62 -2
-137 -2 -165 0 l-53 3 0 153 c0 165 -5 181 -52 174 -23 -3 -23 -4 -26 -165
l-2 -163 -108 -1 c-59 -1 -119 0 -133 1 -50 3 -80 -58 -40 -80 11 -5 79 -10
151 -10 l130 0 -2 -167 -3 -168 -139 -5 c-118 -4 -141 -8 -150 -22 -8 -13 -8
-23 0 -35 9 -15 32 -19 150 -23 l139 -5 3 -92 c2 -71 0 -93 -10 -93 -29 1
-358 57 -363 62 -3 3 -6 237 -6 519 0 478 1 514 17 526 14 10 129 13 526 13
l508 0 0 -34z m-258 -553 c2 -43 2 -119 0 -170 l-3 -92 -165 0 -164 -1 0 170
0 170 165 0 164 0 3 -77z m0 -460 c2 -65 1 -123 -2 -129 -4 -7 -25 -7 -75 2
-94 17 -143 18 -127 2 6 -6 26 -11 44 -10 30 0 31 -1 10 -9 -24 -9 -58 2 -77
27 -5 7 -30 16 -55 21 l-45 9 -3 102 -3 102 165 0 165 0 3 -117z m46 -98 c-6
-13 -16 -21 -21 -18 -8 5 -7 8 0 10 7 3 9 11 6 19 -3 8 1 14 11 14 13 0 14 -4
4 -25z m-502 -55 c175 -28 455 -72 622 -97 l302 -47 0 -406 c0 -311 -3 -410
-13 -423 -11 -16 -55 -18 -602 -18 -325 1 -600 1 -612 1 -13 0 -24 8 -28 20
-5 15 -9 783 -5 1003 0 9 4 17 8 17 4 0 152 -23 328 -50z"/>
<path d="M1996 1538 c-21 -5 -50 -17 -64 -27 -25 -18 -26 -18 -60 5 -41 28
-126 33 -172 9 -64 -33 -99 -115 -80 -187 9 -33 37 -67 133 -165 66 -68 132
-126 145 -130 21 -5 41 12 144 113 66 66 128 136 139 156 63 121 -47 255 -185
226z m-162 -99 c14 -11 26 -28 26 -38 0 -29 30 -62 53 -59 16 2 26 15 35 43
24 77 94 100 146 49 46 -47 33 -74 -96 -202 l-94 -92 -102 103 c-91 93 -102
108 -102 140 0 42 36 77 80 77 15 0 39 -9 54 -21z"/>
<path d="M2771 2541 c-23 -23 -28 -70 -11 -102 25 -47 130 -67 150 -29 15 29
-3 56 -43 64 -27 5 -33 10 -32 32 0 16 -8 32 -22 41 -19 13 -24 12 -42 -6z"/>
<path d="M2938 2169 c-24 -13 -23 -44 2 -79 19 -27 19 -27 0 -45 -33 -30 -20
-75 23 -75 28 0 77 54 77 85 0 34 -35 102 -59 115 -23 12 -22 12 -43 -1z"/>
<path d="M2762 2038 c-29 -29 -2 -72 40 -66 42 6 32 78 -11 78 -9 0 -22 -5
-29 -12z"/>
</g>
</svg>
